<mxfile host="Electron" modified="2024-04-25T20:11:47.696Z" agent="Mozilla/5.0 (Macintosh; Intel Mac OS X 10_15_7) AppleWebKit/537.36 (KHTML, like Gecko) draw.io/23.1.5 Chrome/120.0.6099.109 Electron/28.1.0 Safari/537.36" etag="rEAhO4iyDEUfOCwVqBc2" version="23.1.5" type="device" pages="3">
  <diagram name="workspace" id="WXikdhPYztp3A9CN_g5R">
    <mxGraphModel dx="708" dy="1692" grid="1" gridSize="10" guides="1" tooltips="1" connect="1" arrows="1" fold="1" page="1" pageScale="1" pageWidth="827" pageHeight="1169" math="0" shadow="0">
      <root>
        <mxCell id="0" />
        <mxCell id="1" parent="0" />
        <mxCell id="v1q8hPgkuFbbL23mqx2Q-4" value="" style="edgeStyle=orthogonalEdgeStyle;rounded=0;orthogonalLoop=1;jettySize=auto;html=1;" edge="1" parent="1" source="v1q8hPgkuFbbL23mqx2Q-17" target="v1q8hPgkuFbbL23mqx2Q-3">
          <mxGeometry relative="1" as="geometry" />
        </mxCell>
        <mxCell id="v1q8hPgkuFbbL23mqx2Q-1" value="&lt;font style=&quot;font-size: 18px;&quot;&gt;start&lt;/font&gt;" style="ellipse;whiteSpace=wrap;html=1;" vertex="1" parent="1">
          <mxGeometry x="400" y="-10" width="80" height="40" as="geometry" />
        </mxCell>
        <mxCell id="v1q8hPgkuFbbL23mqx2Q-2" value="&lt;font style=&quot;font-size: 18px;&quot;&gt;finish&lt;/font&gt;" style="ellipse;whiteSpace=wrap;html=1;" vertex="1" parent="1">
          <mxGeometry x="710" y="545" width="80" height="40" as="geometry" />
        </mxCell>
        <mxCell id="v1q8hPgkuFbbL23mqx2Q-6" value="" style="edgeStyle=orthogonalEdgeStyle;rounded=0;orthogonalLoop=1;jettySize=auto;html=1;" edge="1" parent="1" source="v1q8hPgkuFbbL23mqx2Q-3" target="v1q8hPgkuFbbL23mqx2Q-5">
          <mxGeometry relative="1" as="geometry" />
        </mxCell>
        <mxCell id="v1q8hPgkuFbbL23mqx2Q-3" value="&lt;font style=&quot;font-size: 18px;&quot;&gt;index = 0&lt;br&gt;sum = 0&lt;/font&gt;" style="rounded=0;whiteSpace=wrap;html=1;" vertex="1" parent="1">
          <mxGeometry x="380" y="130" width="120" height="50" as="geometry" />
        </mxCell>
        <mxCell id="v1q8hPgkuFbbL23mqx2Q-8" value="" style="edgeStyle=orthogonalEdgeStyle;rounded=0;orthogonalLoop=1;jettySize=auto;html=1;" edge="1" parent="1" source="v1q8hPgkuFbbL23mqx2Q-19" target="v1q8hPgkuFbbL23mqx2Q-7">
          <mxGeometry relative="1" as="geometry" />
        </mxCell>
        <mxCell id="v1q8hPgkuFbbL23mqx2Q-14" style="edgeStyle=orthogonalEdgeStyle;rounded=0;orthogonalLoop=1;jettySize=auto;html=1;entryX=0.5;entryY=0;entryDx=0;entryDy=0;" edge="1" parent="1" source="v1q8hPgkuFbbL23mqx2Q-5" target="v1q8hPgkuFbbL23mqx2Q-13">
          <mxGeometry relative="1" as="geometry" />
        </mxCell>
        <mxCell id="v1q8hPgkuFbbL23mqx2Q-5" value="&lt;font style=&quot;font-size: 18px;&quot;&gt;index &amp;lt;= array.length - 1&lt;/font&gt;" style="rhombus;whiteSpace=wrap;html=1;" vertex="1" parent="1">
          <mxGeometry x="320" y="200" width="240" height="80" as="geometry" />
        </mxCell>
        <mxCell id="v1q8hPgkuFbbL23mqx2Q-11" value="" style="edgeStyle=orthogonalEdgeStyle;rounded=0;orthogonalLoop=1;jettySize=auto;html=1;" edge="1" parent="1" source="v1q8hPgkuFbbL23mqx2Q-7" target="v1q8hPgkuFbbL23mqx2Q-10">
          <mxGeometry relative="1" as="geometry" />
        </mxCell>
        <mxCell id="v1q8hPgkuFbbL23mqx2Q-7" value="&lt;font style=&quot;font-size: 18px;&quot;&gt;sum = sum + array[index]&lt;/font&gt;" style="whiteSpace=wrap;html=1;" vertex="1" parent="1">
          <mxGeometry x="320" y="425" width="240" height="60" as="geometry" />
        </mxCell>
        <mxCell id="v1q8hPgkuFbbL23mqx2Q-9" value="YES" style="text;html=1;align=center;verticalAlign=middle;whiteSpace=wrap;rounded=0;" vertex="1" parent="1">
          <mxGeometry x="450" y="280" width="60" height="30" as="geometry" />
        </mxCell>
        <mxCell id="v1q8hPgkuFbbL23mqx2Q-12" style="edgeStyle=orthogonalEdgeStyle;rounded=0;orthogonalLoop=1;jettySize=auto;html=1;entryX=0;entryY=0.5;entryDx=0;entryDy=0;" edge="1" parent="1" source="v1q8hPgkuFbbL23mqx2Q-10" target="v1q8hPgkuFbbL23mqx2Q-5">
          <mxGeometry relative="1" as="geometry">
            <Array as="points">
              <mxPoint x="280" y="545" />
              <mxPoint x="280" y="240" />
            </Array>
          </mxGeometry>
        </mxCell>
        <mxCell id="v1q8hPgkuFbbL23mqx2Q-10" value="&lt;font style=&quot;font-size: 18px;&quot;&gt;index = index + 1&lt;/font&gt;" style="whiteSpace=wrap;html=1;" vertex="1" parent="1">
          <mxGeometry x="355" y="515" width="170" height="60" as="geometry" />
        </mxCell>
        <mxCell id="v1q8hPgkuFbbL23mqx2Q-16" value="" style="edgeStyle=orthogonalEdgeStyle;rounded=0;orthogonalLoop=1;jettySize=auto;html=1;" edge="1" parent="1" source="v1q8hPgkuFbbL23mqx2Q-13" target="v1q8hPgkuFbbL23mqx2Q-2">
          <mxGeometry relative="1" as="geometry" />
        </mxCell>
        <mxCell id="v1q8hPgkuFbbL23mqx2Q-13" value="&lt;font style=&quot;font-size: 18px;&quot;&gt;print sum&lt;/font&gt;" style="shape=document;whiteSpace=wrap;html=1;boundedLbl=1;" vertex="1" parent="1">
          <mxGeometry x="690" y="435" width="120" height="80" as="geometry" />
        </mxCell>
        <mxCell id="v1q8hPgkuFbbL23mqx2Q-15" value="NO" style="text;html=1;align=center;verticalAlign=middle;whiteSpace=wrap;rounded=0;" vertex="1" parent="1">
          <mxGeometry x="610" y="200" width="60" height="30" as="geometry" />
        </mxCell>
        <mxCell id="v1q8hPgkuFbbL23mqx2Q-18" value="" style="edgeStyle=orthogonalEdgeStyle;rounded=0;orthogonalLoop=1;jettySize=auto;html=1;" edge="1" parent="1" source="v1q8hPgkuFbbL23mqx2Q-1" target="v1q8hPgkuFbbL23mqx2Q-17">
          <mxGeometry relative="1" as="geometry">
            <mxPoint x="440" y="40" as="sourcePoint" />
            <mxPoint x="440" y="130" as="targetPoint" />
          </mxGeometry>
        </mxCell>
        <mxCell id="v1q8hPgkuFbbL23mqx2Q-17" value="&lt;font style=&quot;font-size: 18px;&quot;&gt;input array&lt;/font&gt;" style="shape=parallelogram;perimeter=parallelogramPerimeter;whiteSpace=wrap;html=1;fixedSize=1;" vertex="1" parent="1">
          <mxGeometry x="370" y="50" width="140" height="50" as="geometry" />
        </mxCell>
        <mxCell id="v1q8hPgkuFbbL23mqx2Q-20" value="" style="edgeStyle=orthogonalEdgeStyle;rounded=0;orthogonalLoop=1;jettySize=auto;html=1;" edge="1" parent="1" source="v1q8hPgkuFbbL23mqx2Q-5" target="v1q8hPgkuFbbL23mqx2Q-19">
          <mxGeometry relative="1" as="geometry">
            <mxPoint x="440" y="280" as="sourcePoint" />
            <mxPoint x="440" y="425" as="targetPoint" />
          </mxGeometry>
        </mxCell>
        <mxCell id="v1q8hPgkuFbbL23mqx2Q-22" style="edgeStyle=orthogonalEdgeStyle;rounded=0;orthogonalLoop=1;jettySize=auto;html=1;entryX=1;entryY=0.5;entryDx=0;entryDy=0;" edge="1" parent="1" source="v1q8hPgkuFbbL23mqx2Q-19" target="v1q8hPgkuFbbL23mqx2Q-10">
          <mxGeometry relative="1" as="geometry">
            <Array as="points">
              <mxPoint x="630" y="350" />
              <mxPoint x="630" y="545" />
            </Array>
          </mxGeometry>
        </mxCell>
        <mxCell id="v1q8hPgkuFbbL23mqx2Q-19" value="&lt;font style=&quot;font-size: 18px;&quot;&gt;array[index] % 2 == 1 ?&lt;/font&gt;" style="rhombus;whiteSpace=wrap;html=1;" vertex="1" parent="1">
          <mxGeometry x="320" y="310" width="240" height="80" as="geometry" />
        </mxCell>
        <mxCell id="v1q8hPgkuFbbL23mqx2Q-21" value="YES" style="text;html=1;align=center;verticalAlign=middle;whiteSpace=wrap;rounded=0;" vertex="1" parent="1">
          <mxGeometry x="450" y="390" width="60" height="30" as="geometry" />
        </mxCell>
        <mxCell id="v1q8hPgkuFbbL23mqx2Q-23" value="NO" style="text;html=1;align=center;verticalAlign=middle;whiteSpace=wrap;rounded=0;" vertex="1" parent="1">
          <mxGeometry x="560" y="320" width="60" height="30" as="geometry" />
        </mxCell>
        <mxCell id="Tw9TjZYXh6Vnwfjffs9L-1" value="&lt;font style=&quot;font-size: 24px;&quot;&gt;9&lt;/font&gt;" style="rounded=0;whiteSpace=wrap;html=1;" vertex="1" parent="1">
          <mxGeometry x="240" y="760" width="60" height="60" as="geometry" />
        </mxCell>
        <mxCell id="Tw9TjZYXh6Vnwfjffs9L-2" value="&lt;font style=&quot;font-size: 24px;&quot;&gt;0&lt;/font&gt;" style="rounded=0;whiteSpace=wrap;html=1;" vertex="1" parent="1">
          <mxGeometry x="560" y="760" width="60" height="60" as="geometry" />
        </mxCell>
        <mxCell id="Tw9TjZYXh6Vnwfjffs9L-3" value="&lt;font style=&quot;font-size: 24px;&quot;&gt;7&lt;/font&gt;" style="rounded=0;whiteSpace=wrap;html=1;" vertex="1" parent="1">
          <mxGeometry x="480" y="760" width="60" height="60" as="geometry" />
        </mxCell>
        <mxCell id="Tw9TjZYXh6Vnwfjffs9L-4" value="&lt;font style=&quot;font-size: 24px;&quot;&gt;5&lt;/font&gt;" style="rounded=0;whiteSpace=wrap;html=1;" vertex="1" parent="1">
          <mxGeometry x="400" y="760" width="60" height="60" as="geometry" />
        </mxCell>
        <mxCell id="Tw9TjZYXh6Vnwfjffs9L-5" value="&lt;font style=&quot;font-size: 24px;&quot;&gt;1&lt;/font&gt;" style="rounded=0;whiteSpace=wrap;html=1;" vertex="1" parent="1">
          <mxGeometry x="320" y="760" width="60" height="60" as="geometry" />
        </mxCell>
        <mxCell id="Tw9TjZYXh6Vnwfjffs9L-6" value="&lt;font style=&quot;font-size: 24px;&quot;&gt;2&lt;/font&gt;" style="rounded=0;whiteSpace=wrap;html=1;" vertex="1" parent="1">
          <mxGeometry x="640" y="760" width="60" height="60" as="geometry" />
        </mxCell>
        <mxCell id="Tw9TjZYXh6Vnwfjffs9L-7" value="0" style="text;html=1;align=center;verticalAlign=middle;whiteSpace=wrap;rounded=0;" vertex="1" parent="1">
          <mxGeometry x="255" y="720" width="30" height="30" as="geometry" />
        </mxCell>
        <mxCell id="Tw9TjZYXh6Vnwfjffs9L-8" value="2" style="text;html=1;align=center;verticalAlign=middle;whiteSpace=wrap;rounded=0;" vertex="1" parent="1">
          <mxGeometry x="414" y="720" width="30" height="30" as="geometry" />
        </mxCell>
        <mxCell id="Tw9TjZYXh6Vnwfjffs9L-9" value="3" style="text;html=1;align=center;verticalAlign=middle;whiteSpace=wrap;rounded=0;" vertex="1" parent="1">
          <mxGeometry x="495" y="720" width="30" height="30" as="geometry" />
        </mxCell>
        <mxCell id="Tw9TjZYXh6Vnwfjffs9L-10" value="4" style="text;html=1;align=center;verticalAlign=middle;whiteSpace=wrap;rounded=0;" vertex="1" parent="1">
          <mxGeometry x="575" y="720" width="30" height="30" as="geometry" />
        </mxCell>
        <mxCell id="Tw9TjZYXh6Vnwfjffs9L-11" value="5" style="text;html=1;align=center;verticalAlign=middle;whiteSpace=wrap;rounded=0;" vertex="1" parent="1">
          <mxGeometry x="655" y="720" width="30" height="30" as="geometry" />
        </mxCell>
        <mxCell id="Tw9TjZYXh6Vnwfjffs9L-12" value="1" style="text;html=1;align=center;verticalAlign=middle;whiteSpace=wrap;rounded=0;" vertex="1" parent="1">
          <mxGeometry x="335" y="720" width="30" height="30" as="geometry" />
        </mxCell>
        <mxCell id="Tw9TjZYXh6Vnwfjffs9L-13" value="&lt;span style=&quot;font-size: 24px;&quot;&gt;index = 0&lt;br&gt;&lt;br&gt;&lt;br&gt;temp = array[index]&lt;br&gt;array[index] = array[array.length - 1]&lt;br&gt;array[array.length - 1] = temp&lt;br&gt;&lt;/span&gt;" style="rounded=0;whiteSpace=wrap;html=1;" vertex="1" parent="1">
          <mxGeometry x="240" y="840" width="460" height="250" as="geometry" />
        </mxCell>
        <mxCell id="Tw9TjZYXh6Vnwfjffs9L-14" value="&lt;font style=&quot;font-size: 24px;&quot;&gt;2&lt;/font&gt;" style="rounded=0;whiteSpace=wrap;html=1;" vertex="1" parent="1">
          <mxGeometry x="740" y="840" width="60" height="60" as="geometry" />
        </mxCell>
        <mxCell id="Tw9TjZYXh6Vnwfjffs9L-15" value="&lt;font style=&quot;font-size: 24px;&quot;&gt;array[array.length / 2 + 2] == array[ 5 ] == 2&lt;br&gt;array[10 / 5 + 1 - index] == array[ 3 ] == 7&lt;br&gt;&lt;/font&gt;" style="rounded=0;whiteSpace=wrap;html=1;" vertex="1" parent="1">
          <mxGeometry x="240" y="1120" width="460" height="150" as="geometry" />
        </mxCell>
        <mxCell id="2_k8lRQ-8_XrgrBB0nMi-1" value="&lt;font style=&quot;font-size: 24px;&quot;&gt;9&lt;/font&gt;" style="rounded=0;whiteSpace=wrap;html=1;" vertex="1" parent="1">
          <mxGeometry x="240" y="1370" width="60" height="60" as="geometry" />
        </mxCell>
        <mxCell id="2_k8lRQ-8_XrgrBB0nMi-2" value="&lt;font style=&quot;font-size: 24px;&quot;&gt;0&lt;/font&gt;" style="rounded=0;whiteSpace=wrap;html=1;" vertex="1" parent="1">
          <mxGeometry x="560" y="1370" width="60" height="60" as="geometry" />
        </mxCell>
        <mxCell id="2_k8lRQ-8_XrgrBB0nMi-3" value="&lt;font style=&quot;font-size: 24px;&quot;&gt;7&lt;/font&gt;" style="rounded=0;whiteSpace=wrap;html=1;" vertex="1" parent="1">
          <mxGeometry x="480" y="1370" width="60" height="60" as="geometry" />
        </mxCell>
        <mxCell id="2_k8lRQ-8_XrgrBB0nMi-4" value="&lt;font style=&quot;font-size: 24px;&quot;&gt;5&lt;/font&gt;" style="rounded=0;whiteSpace=wrap;html=1;" vertex="1" parent="1">
          <mxGeometry x="400" y="1370" width="60" height="60" as="geometry" />
        </mxCell>
        <mxCell id="2_k8lRQ-8_XrgrBB0nMi-5" value="&lt;font style=&quot;font-size: 24px;&quot;&gt;1&lt;/font&gt;" style="rounded=0;whiteSpace=wrap;html=1;" vertex="1" parent="1">
          <mxGeometry x="320" y="1370" width="60" height="60" as="geometry" />
        </mxCell>
        <mxCell id="2_k8lRQ-8_XrgrBB0nMi-6" value="&lt;font style=&quot;font-size: 24px;&quot;&gt;2&lt;/font&gt;" style="rounded=0;whiteSpace=wrap;html=1;" vertex="1" parent="1">
          <mxGeometry x="640" y="1370" width="60" height="60" as="geometry" />
        </mxCell>
        <mxCell id="2_k8lRQ-8_XrgrBB0nMi-7" value="0" style="text;html=1;align=center;verticalAlign=middle;whiteSpace=wrap;rounded=0;" vertex="1" parent="1">
          <mxGeometry x="255" y="1330" width="30" height="30" as="geometry" />
        </mxCell>
        <mxCell id="2_k8lRQ-8_XrgrBB0nMi-8" value="2" style="text;html=1;align=center;verticalAlign=middle;whiteSpace=wrap;rounded=0;" vertex="1" parent="1">
          <mxGeometry x="414" y="1330" width="30" height="30" as="geometry" />
        </mxCell>
        <mxCell id="2_k8lRQ-8_XrgrBB0nMi-9" value="3" style="text;html=1;align=center;verticalAlign=middle;whiteSpace=wrap;rounded=0;" vertex="1" parent="1">
          <mxGeometry x="495" y="1330" width="30" height="30" as="geometry" />
        </mxCell>
        <mxCell id="2_k8lRQ-8_XrgrBB0nMi-10" value="4" style="text;html=1;align=center;verticalAlign=middle;whiteSpace=wrap;rounded=0;" vertex="1" parent="1">
          <mxGeometry x="575" y="1330" width="30" height="30" as="geometry" />
        </mxCell>
        <mxCell id="2_k8lRQ-8_XrgrBB0nMi-11" value="5" style="text;html=1;align=center;verticalAlign=middle;whiteSpace=wrap;rounded=0;" vertex="1" parent="1">
          <mxGeometry x="655" y="1330" width="30" height="30" as="geometry" />
        </mxCell>
        <mxCell id="2_k8lRQ-8_XrgrBB0nMi-12" value="1" style="text;html=1;align=center;verticalAlign=middle;whiteSpace=wrap;rounded=0;" vertex="1" parent="1">
          <mxGeometry x="335" y="1330" width="30" height="30" as="geometry" />
        </mxCell>
        <mxCell id="1peIqbUULbe5wM6XCs4H-3" value="" style="edgeStyle=orthogonalEdgeStyle;rounded=0;orthogonalLoop=1;jettySize=auto;html=1;" edge="1" parent="1" source="1peIqbUULbe5wM6XCs4H-1" target="1peIqbUULbe5wM6XCs4H-2">
          <mxGeometry relative="1" as="geometry" />
        </mxCell>
        <mxCell id="1peIqbUULbe5wM6XCs4H-1" value="" style="rounded=0;whiteSpace=wrap;html=1;" vertex="1" parent="1">
          <mxGeometry x="1121" y="80" width="120" height="60" as="geometry" />
        </mxCell>
        <mxCell id="1peIqbUULbe5wM6XCs4H-4" style="edgeStyle=orthogonalEdgeStyle;rounded=0;orthogonalLoop=1;jettySize=auto;html=1;entryX=0;entryY=0.5;entryDx=0;entryDy=0;" edge="1" parent="1" source="1peIqbUULbe5wM6XCs4H-2" target="1peIqbUULbe5wM6XCs4H-1">
          <mxGeometry relative="1" as="geometry">
            <Array as="points">
              <mxPoint x="1040" y="250" />
              <mxPoint x="1040" y="110" />
            </Array>
          </mxGeometry>
        </mxCell>
        <mxCell id="1peIqbUULbe5wM6XCs4H-2" value="" style="rounded=0;whiteSpace=wrap;html=1;" vertex="1" parent="1">
          <mxGeometry x="1121" y="220" width="120" height="60" as="geometry" />
        </mxCell>
      </root>
    </mxGraphModel>
  </diagram>
  <diagram id="P4-EmAukfv7l1iBcLN2L" name="cycle">
    <mxGraphModel dx="787" dy="581" grid="1" gridSize="10" guides="1" tooltips="1" connect="1" arrows="1" fold="1" page="1" pageScale="1" pageWidth="827" pageHeight="1169" math="0" shadow="0">
      <root>
        <mxCell id="0" />
        <mxCell id="1" parent="0" />
        <mxCell id="LexU2-zY_e7MfTUbFMF3-7" value="" style="edgeStyle=orthogonalEdgeStyle;rounded=0;orthogonalLoop=1;jettySize=auto;html=1;" parent="1" source="LexU2-zY_e7MfTUbFMF3-1" target="LexU2-zY_e7MfTUbFMF3-6" edge="1">
          <mxGeometry relative="1" as="geometry" />
        </mxCell>
        <mxCell id="LexU2-zY_e7MfTUbFMF3-16" value="" style="edgeStyle=orthogonalEdgeStyle;rounded=0;orthogonalLoop=1;jettySize=auto;html=1;" parent="1" source="LexU2-zY_e7MfTUbFMF3-1" edge="1">
          <mxGeometry relative="1" as="geometry">
            <mxPoint x="809" y="400" as="targetPoint" />
          </mxGeometry>
        </mxCell>
        <mxCell id="LexU2-zY_e7MfTUbFMF3-1" value="&lt;font style=&quot;font-size: 20px;&quot;&gt;index = 0 ; size - 1 ; 1&lt;/font&gt;" style="shape=hexagon;perimeter=hexagonPerimeter2;whiteSpace=wrap;html=1;fixedSize=1;" parent="1" vertex="1">
          <mxGeometry x="517.75" y="360" width="232.5" height="80" as="geometry" />
        </mxCell>
        <mxCell id="LexU2-zY_e7MfTUbFMF3-2" value="&lt;font style=&quot;font-size: 20px;&quot;&gt;==&lt;/font&gt;" style="text;html=1;strokeColor=none;fillColor=none;align=center;verticalAlign=middle;whiteSpace=wrap;rounded=0;" parent="1" vertex="1">
          <mxGeometry x="369" y="385" width="60" height="30" as="geometry" />
        </mxCell>
        <mxCell id="LexU2-zY_e7MfTUbFMF3-5" value="" style="edgeStyle=orthogonalEdgeStyle;rounded=0;orthogonalLoop=1;jettySize=auto;html=1;" parent="1" source="LexU2-zY_e7MfTUbFMF3-3" target="LexU2-zY_e7MfTUbFMF3-4" edge="1">
          <mxGeometry relative="1" as="geometry" />
        </mxCell>
        <mxCell id="LexU2-zY_e7MfTUbFMF3-3" value="index = 0" style="rounded=0;whiteSpace=wrap;html=1;fontSize=20;" parent="1" vertex="1">
          <mxGeometry x="69" y="250" width="180" height="60" as="geometry" />
        </mxCell>
        <mxCell id="LexU2-zY_e7MfTUbFMF3-10" value="" style="edgeStyle=orthogonalEdgeStyle;rounded=0;orthogonalLoop=1;jettySize=auto;html=1;" parent="1" source="LexU2-zY_e7MfTUbFMF3-4" target="LexU2-zY_e7MfTUbFMF3-9" edge="1">
          <mxGeometry relative="1" as="geometry" />
        </mxCell>
        <mxCell id="LexU2-zY_e7MfTUbFMF3-15" value="" style="edgeStyle=orthogonalEdgeStyle;rounded=0;orthogonalLoop=1;jettySize=auto;html=1;" parent="1" source="LexU2-zY_e7MfTUbFMF3-4" edge="1">
          <mxGeometry relative="1" as="geometry">
            <mxPoint x="319" y="400" as="targetPoint" />
          </mxGeometry>
        </mxCell>
        <mxCell id="LexU2-zY_e7MfTUbFMF3-4" value="index &amp;lt;= size - 1" style="rhombus;whiteSpace=wrap;html=1;fontSize=20;" parent="1" vertex="1">
          <mxGeometry x="66.56" y="360" width="184.88" height="80" as="geometry" />
        </mxCell>
        <mxCell id="LexU2-zY_e7MfTUbFMF3-8" style="edgeStyle=orthogonalEdgeStyle;rounded=0;orthogonalLoop=1;jettySize=auto;html=1;entryX=0;entryY=0.5;entryDx=0;entryDy=0;" parent="1" source="LexU2-zY_e7MfTUbFMF3-6" target="LexU2-zY_e7MfTUbFMF3-1" edge="1">
          <mxGeometry relative="1" as="geometry">
            <Array as="points">
              <mxPoint x="479" y="510" />
              <mxPoint x="479" y="400" />
            </Array>
          </mxGeometry>
        </mxCell>
        <mxCell id="LexU2-zY_e7MfTUbFMF3-6" value="&lt;font style=&quot;font-size: 20px;&quot;&gt;процесс...&lt;/font&gt;" style="rounded=0;whiteSpace=wrap;html=1;" parent="1" vertex="1">
          <mxGeometry x="574" y="480" width="120" height="60" as="geometry" />
        </mxCell>
        <mxCell id="LexU2-zY_e7MfTUbFMF3-12" value="" style="edgeStyle=orthogonalEdgeStyle;rounded=0;orthogonalLoop=1;jettySize=auto;html=1;" parent="1" source="LexU2-zY_e7MfTUbFMF3-9" target="LexU2-zY_e7MfTUbFMF3-11" edge="1">
          <mxGeometry relative="1" as="geometry" />
        </mxCell>
        <mxCell id="LexU2-zY_e7MfTUbFMF3-9" value="&lt;font style=&quot;font-size: 20px;&quot;&gt;процесс...&lt;/font&gt;" style="rounded=0;whiteSpace=wrap;html=1;" parent="1" vertex="1">
          <mxGeometry x="99" y="480" width="120" height="60" as="geometry" />
        </mxCell>
        <mxCell id="LexU2-zY_e7MfTUbFMF3-13" style="edgeStyle=orthogonalEdgeStyle;rounded=0;orthogonalLoop=1;jettySize=auto;html=1;entryX=0;entryY=0.5;entryDx=0;entryDy=0;" parent="1" source="LexU2-zY_e7MfTUbFMF3-11" target="LexU2-zY_e7MfTUbFMF3-4" edge="1">
          <mxGeometry relative="1" as="geometry">
            <Array as="points">
              <mxPoint x="19" y="615" />
              <mxPoint x="19" y="400" />
            </Array>
          </mxGeometry>
        </mxCell>
        <mxCell id="LexU2-zY_e7MfTUbFMF3-11" value="&lt;span style=&quot;font-size: 20px;&quot;&gt;index = index + 1&lt;/span&gt;" style="rounded=0;whiteSpace=wrap;html=1;" parent="1" vertex="1">
          <mxGeometry x="69" y="585" width="180" height="60" as="geometry" />
        </mxCell>
        <mxCell id="LexU2-zY_e7MfTUbFMF3-17" value="&lt;span style=&quot;font-size: 20px;&quot;&gt;NO&lt;br&gt;&lt;/span&gt;" style="text;html=1;strokeColor=none;fillColor=none;align=center;verticalAlign=middle;whiteSpace=wrap;rounded=0;" parent="1" vertex="1">
          <mxGeometry x="269" y="370" width="60" height="30" as="geometry" />
        </mxCell>
        <mxCell id="LexU2-zY_e7MfTUbFMF3-18" value="&lt;span style=&quot;font-size: 20px;&quot;&gt;YES&lt;br&gt;&lt;/span&gt;" style="text;html=1;strokeColor=none;fillColor=none;align=center;verticalAlign=middle;whiteSpace=wrap;rounded=0;" parent="1" vertex="1">
          <mxGeometry x="159" y="440" width="60" height="30" as="geometry" />
        </mxCell>
        <mxCell id="1ZC5GhrSifBhrZsXhqvY-2" value="" style="edgeStyle=orthogonalEdgeStyle;rounded=0;orthogonalLoop=1;jettySize=auto;html=1;" parent="1" source="sTOIrjucel753l8Y-Mdl-1" target="LexU2-zY_e7MfTUbFMF3-1" edge="1">
          <mxGeometry relative="1" as="geometry" />
        </mxCell>
        <mxCell id="sTOIrjucel753l8Y-Mdl-1" value="&lt;font style=&quot;font-size: 24px;&quot;&gt;FOR&lt;/font&gt;" style="text;html=1;strokeColor=none;fillColor=none;align=center;verticalAlign=middle;whiteSpace=wrap;rounded=0;" parent="1" vertex="1">
          <mxGeometry x="609" y="290" width="50" height="20" as="geometry" />
        </mxCell>
        <mxCell id="1ZC5GhrSifBhrZsXhqvY-1" value="" style="edgeStyle=orthogonalEdgeStyle;rounded=0;orthogonalLoop=1;jettySize=auto;html=1;" parent="1" source="sTOIrjucel753l8Y-Mdl-2" target="LexU2-zY_e7MfTUbFMF3-3" edge="1">
          <mxGeometry relative="1" as="geometry" />
        </mxCell>
        <mxCell id="sTOIrjucel753l8Y-Mdl-2" value="&lt;span style=&quot;font-size: 24px;&quot;&gt;WHILE&lt;/span&gt;" style="text;html=1;strokeColor=none;fillColor=none;align=center;verticalAlign=middle;whiteSpace=wrap;rounded=0;" parent="1" vertex="1">
          <mxGeometry x="134" y="180" width="50" height="20" as="geometry" />
        </mxCell>
        <mxCell id="Oj-AsKhjkVAz6dQx3njV-1" value="" style="edgeStyle=orthogonalEdgeStyle;rounded=0;orthogonalLoop=1;jettySize=auto;html=1;" parent="1" source="Oj-AsKhjkVAz6dQx3njV-3" target="Oj-AsKhjkVAz6dQx3njV-5" edge="1">
          <mxGeometry relative="1" as="geometry" />
        </mxCell>
        <mxCell id="Oj-AsKhjkVAz6dQx3njV-2" value="" style="edgeStyle=orthogonalEdgeStyle;rounded=0;orthogonalLoop=1;jettySize=auto;html=1;" parent="1" source="Oj-AsKhjkVAz6dQx3njV-3" edge="1">
          <mxGeometry relative="1" as="geometry">
            <mxPoint x="1190" y="400" as="targetPoint" />
          </mxGeometry>
        </mxCell>
        <mxCell id="Oj-AsKhjkVAz6dQx3njV-3" value="&lt;font style=&quot;font-size: 20px;&quot;&gt;time = 08:00 ; 20:00 ; 1час&lt;/font&gt;" style="shape=hexagon;perimeter=hexagonPerimeter2;whiteSpace=wrap;html=1;fixedSize=1;" parent="1" vertex="1">
          <mxGeometry x="884.38" y="360" width="261.25" height="80" as="geometry" />
        </mxCell>
        <mxCell id="Oj-AsKhjkVAz6dQx3njV-4" style="edgeStyle=orthogonalEdgeStyle;rounded=0;orthogonalLoop=1;jettySize=auto;html=1;entryX=0;entryY=0.5;entryDx=0;entryDy=0;" parent="1" source="Oj-AsKhjkVAz6dQx3njV-5" target="Oj-AsKhjkVAz6dQx3njV-3" edge="1">
          <mxGeometry relative="1" as="geometry">
            <Array as="points">
              <mxPoint x="860" y="510" />
              <mxPoint x="860" y="400" />
            </Array>
          </mxGeometry>
        </mxCell>
        <mxCell id="Oj-AsKhjkVAz6dQx3njV-5" value="&lt;span style=&quot;font-size: 20px;&quot;&gt;покурить&lt;/span&gt;" style="rounded=0;whiteSpace=wrap;html=1;" parent="1" vertex="1">
          <mxGeometry x="955" y="480" width="120" height="60" as="geometry" />
        </mxCell>
        <mxCell id="Oj-AsKhjkVAz6dQx3njV-6" value="" style="edgeStyle=orthogonalEdgeStyle;rounded=0;orthogonalLoop=1;jettySize=auto;html=1;" parent="1" source="Oj-AsKhjkVAz6dQx3njV-7" target="Oj-AsKhjkVAz6dQx3njV-3" edge="1">
          <mxGeometry relative="1" as="geometry" />
        </mxCell>
        <mxCell id="Oj-AsKhjkVAz6dQx3njV-7" value="&lt;font style=&quot;font-size: 24px;&quot;&gt;FOR&lt;/font&gt;" style="text;html=1;strokeColor=none;fillColor=none;align=center;verticalAlign=middle;whiteSpace=wrap;rounded=0;" parent="1" vertex="1">
          <mxGeometry x="990" y="290" width="50" height="20" as="geometry" />
        </mxCell>
      </root>
    </mxGraphModel>
  </diagram>
  <diagram id="jdTRwilEjqYUmAwK5tEE" name="bubble_sort">
    <mxGraphModel dx="944" dy="697" grid="1" gridSize="10" guides="1" tooltips="1" connect="1" arrows="1" fold="1" page="1" pageScale="1" pageWidth="827" pageHeight="1169" math="0" shadow="0">
      <root>
        <mxCell id="0" />
        <mxCell id="1" parent="0" />
        <mxCell id="peR7e4rZDvekPOYOnaOr-4" value="" style="edgeStyle=orthogonalEdgeStyle;rounded=0;orthogonalLoop=1;jettySize=auto;html=1;entryX=0.5;entryY=0;entryDx=0;entryDy=0;" parent="1" source="peR7e4rZDvekPOYOnaOr-2" target="peR7e4rZDvekPOYOnaOr-5" edge="1">
          <mxGeometry relative="1" as="geometry">
            <mxPoint x="400" y="300" as="targetPoint" />
          </mxGeometry>
        </mxCell>
        <mxCell id="peR7e4rZDvekPOYOnaOr-2" value="&lt;font style=&quot;font-size: 20px;&quot;&gt;START&lt;/font&gt;" style="ellipse;whiteSpace=wrap;html=1;" parent="1" vertex="1">
          <mxGeometry x="350" y="240" width="100" height="40" as="geometry" />
        </mxCell>
        <mxCell id="peR7e4rZDvekPOYOnaOr-8" value="" style="edgeStyle=orthogonalEdgeStyle;rounded=0;orthogonalLoop=1;jettySize=auto;html=1;" parent="1" source="peR7e4rZDvekPOYOnaOr-5" target="peR7e4rZDvekPOYOnaOr-7" edge="1">
          <mxGeometry relative="1" as="geometry" />
        </mxCell>
        <mxCell id="peR7e4rZDvekPOYOnaOr-5" value="&lt;font style=&quot;font-size: 20px;&quot;&gt;input size&lt;br&gt;input array[ ]&lt;br&gt;&lt;/font&gt;" style="shape=parallelogram;perimeter=parallelogramPerimeter;whiteSpace=wrap;html=1;fixedSize=1;" parent="1" vertex="1">
          <mxGeometry x="320" y="310" width="160" height="80" as="geometry" />
        </mxCell>
        <mxCell id="peR7e4rZDvekPOYOnaOr-10" value="" style="edgeStyle=orthogonalEdgeStyle;rounded=0;orthogonalLoop=1;jettySize=auto;html=1;" parent="1" source="peR7e4rZDvekPOYOnaOr-7" target="peR7e4rZDvekPOYOnaOr-9" edge="1">
          <mxGeometry relative="1" as="geometry" />
        </mxCell>
        <mxCell id="uJEabpY6I5TDiEh2cIjd-2" style="edgeStyle=orthogonalEdgeStyle;rounded=0;orthogonalLoop=1;jettySize=auto;html=1;entryX=0;entryY=0.5;entryDx=0;entryDy=0;" parent="1" source="peR7e4rZDvekPOYOnaOr-7" target="peR7e4rZDvekPOYOnaOr-20" edge="1">
          <mxGeometry relative="1" as="geometry">
            <Array as="points">
              <mxPoint x="160" y="445" />
              <mxPoint x="160" y="870" />
            </Array>
          </mxGeometry>
        </mxCell>
        <mxCell id="peR7e4rZDvekPOYOnaOr-7" value="&lt;font style=&quot;font-size: 20px;&quot;&gt;i = 5; size - 1 ; 1&lt;/font&gt;" style="shape=hexagon;perimeter=hexagonPerimeter2;whiteSpace=wrap;html=1;fixedSize=1;" parent="1" vertex="1">
          <mxGeometry x="315" y="420" width="170" height="50" as="geometry" />
        </mxCell>
        <mxCell id="peR7e4rZDvekPOYOnaOr-12" value="" style="edgeStyle=orthogonalEdgeStyle;rounded=0;orthogonalLoop=1;jettySize=auto;html=1;" parent="1" source="peR7e4rZDvekPOYOnaOr-9" target="peR7e4rZDvekPOYOnaOr-11" edge="1">
          <mxGeometry relative="1" as="geometry" />
        </mxCell>
        <mxCell id="peR7e4rZDvekPOYOnaOr-17" style="edgeStyle=orthogonalEdgeStyle;rounded=0;orthogonalLoop=1;jettySize=auto;html=1;entryX=1;entryY=0.5;entryDx=0;entryDy=0;" parent="1" source="peR7e4rZDvekPOYOnaOr-9" target="peR7e4rZDvekPOYOnaOr-7" edge="1">
          <mxGeometry relative="1" as="geometry">
            <Array as="points">
              <mxPoint x="550" y="525" />
              <mxPoint x="550" y="445" />
            </Array>
          </mxGeometry>
        </mxCell>
        <mxCell id="peR7e4rZDvekPOYOnaOr-9" value="&lt;font style=&quot;font-size: 20px;&quot;&gt;j = 0 ; size - 2 ; 1&lt;/font&gt;" style="shape=hexagon;perimeter=hexagonPerimeter2;whiteSpace=wrap;html=1;fixedSize=1;" parent="1" vertex="1">
          <mxGeometry x="315" y="500" width="170" height="50" as="geometry" />
        </mxCell>
        <mxCell id="peR7e4rZDvekPOYOnaOr-14" value="" style="edgeStyle=orthogonalEdgeStyle;rounded=0;orthogonalLoop=1;jettySize=auto;html=1;" parent="1" source="peR7e4rZDvekPOYOnaOr-11" target="peR7e4rZDvekPOYOnaOr-13" edge="1">
          <mxGeometry relative="1" as="geometry" />
        </mxCell>
        <mxCell id="peR7e4rZDvekPOYOnaOr-18" style="edgeStyle=orthogonalEdgeStyle;rounded=0;orthogonalLoop=1;jettySize=auto;html=1;" parent="1" source="peR7e4rZDvekPOYOnaOr-11" edge="1">
          <mxGeometry relative="1" as="geometry">
            <mxPoint x="200" y="625" as="targetPoint" />
          </mxGeometry>
        </mxCell>
        <mxCell id="peR7e4rZDvekPOYOnaOr-11" value="&lt;font style=&quot;font-size: 20px;&quot;&gt;array[ j ] &amp;gt; array[ j + 1 ]&lt;/font&gt;" style="rhombus;whiteSpace=wrap;html=1;" parent="1" vertex="1">
          <mxGeometry x="247.5" y="585" width="305" height="80" as="geometry" />
        </mxCell>
        <mxCell id="peR7e4rZDvekPOYOnaOr-16" style="edgeStyle=orthogonalEdgeStyle;rounded=0;orthogonalLoop=1;jettySize=auto;html=1;entryX=0;entryY=0.5;entryDx=0;entryDy=0;" parent="1" source="peR7e4rZDvekPOYOnaOr-13" target="peR7e4rZDvekPOYOnaOr-9" edge="1">
          <mxGeometry relative="1" as="geometry">
            <Array as="points">
              <mxPoint x="200" y="750" />
              <mxPoint x="200" y="525" />
            </Array>
          </mxGeometry>
        </mxCell>
        <mxCell id="peR7e4rZDvekPOYOnaOr-13" value="temp = array[ j ]&lt;br&gt;array[ j ] = array[ j + 1 ]&lt;br&gt;array[ j + 1 ] = temp&lt;br&gt;" style="rounded=0;whiteSpace=wrap;html=1;fontSize=20;" parent="1" vertex="1">
          <mxGeometry x="275" y="705" width="250" height="90" as="geometry" />
        </mxCell>
        <mxCell id="peR7e4rZDvekPOYOnaOr-15" value="YES" style="text;html=1;strokeColor=none;fillColor=none;align=center;verticalAlign=middle;whiteSpace=wrap;rounded=0;fontSize=20;" parent="1" vertex="1">
          <mxGeometry x="414" y="665" width="60" height="30" as="geometry" />
        </mxCell>
        <mxCell id="peR7e4rZDvekPOYOnaOr-19" value="NO" style="text;html=1;strokeColor=none;fillColor=none;align=center;verticalAlign=middle;whiteSpace=wrap;rounded=0;fontSize=20;" parent="1" vertex="1">
          <mxGeometry x="200" y="585" width="60" height="30" as="geometry" />
        </mxCell>
        <mxCell id="peR7e4rZDvekPOYOnaOr-24" value="" style="edgeStyle=orthogonalEdgeStyle;rounded=0;orthogonalLoop=1;jettySize=auto;html=1;" parent="1" source="peR7e4rZDvekPOYOnaOr-20" target="peR7e4rZDvekPOYOnaOr-23" edge="1">
          <mxGeometry relative="1" as="geometry" />
        </mxCell>
        <mxCell id="peR7e4rZDvekPOYOnaOr-20" value="print array[ ]" style="shape=document;whiteSpace=wrap;html=1;boundedLbl=1;fontSize=20;" parent="1" vertex="1">
          <mxGeometry x="325" y="830" width="150" height="80" as="geometry" />
        </mxCell>
        <mxCell id="peR7e4rZDvekPOYOnaOr-23" value="&lt;font style=&quot;font-size: 20px;&quot;&gt;FINISH&lt;/font&gt;" style="ellipse;whiteSpace=wrap;html=1;" parent="1" vertex="1">
          <mxGeometry x="350" y="930" width="100" height="40" as="geometry" />
        </mxCell>
        <mxCell id="0fglTVCyHgMQ-s3-Qksn-6" value="&lt;font style=&quot;font-size: 36px;&quot;&gt;7 4 2 1 5 9&lt;/font&gt;" style="rounded=0;whiteSpace=wrap;html=1;" parent="1" vertex="1">
          <mxGeometry x="605" y="310" width="197" height="50" as="geometry" />
        </mxCell>
        <mxCell id="CYaU72HBIT2Vs5q2yD6l-1" value="&lt;font style=&quot;font-size: 36px;&quot;&gt;1 2 4 5 7 9&lt;/font&gt;" style="text;html=1;strokeColor=none;fillColor=none;align=center;verticalAlign=middle;whiteSpace=wrap;rounded=0;" parent="1" vertex="1">
          <mxGeometry x="587" y="240" width="233" height="80" as="geometry" />
        </mxCell>
        <mxCell id="o-Rz7otg5Xsn_aub4Lgo-1" value="&lt;font style=&quot;font-size: 24px;&quot;&gt;6&lt;/font&gt;" style="text;html=1;align=center;verticalAlign=middle;whiteSpace=wrap;rounded=0;" parent="1" vertex="1">
          <mxGeometry x="550" y="320" width="37" height="30" as="geometry" />
        </mxCell>
        <mxCell id="AHbj8GCZAYn0mLDnQvJX-1" value="&lt;font style=&quot;font-size: 24px;&quot;&gt;i == 0&lt;br&gt;j == 0&lt;/font&gt;" style="text;html=1;align=center;verticalAlign=middle;whiteSpace=wrap;rounded=0;" vertex="1" parent="1">
          <mxGeometry x="560" y="420" width="120" height="80" as="geometry" />
        </mxCell>
        <mxCell id="AHbj8GCZAYn0mLDnQvJX-2" value="&lt;font style=&quot;font-size: 36px;&quot;&gt;7 4 2 1 5 9&lt;/font&gt;" style="rounded=0;whiteSpace=wrap;html=1;" vertex="1" parent="1">
          <mxGeometry x="670" y="435" width="197" height="50" as="geometry" />
        </mxCell>
        <mxCell id="AHbj8GCZAYn0mLDnQvJX-3" value="&lt;font style=&quot;font-size: 24px;&quot;&gt;i == 0&lt;br&gt;j == 1&lt;/font&gt;" style="text;html=1;align=center;verticalAlign=middle;whiteSpace=wrap;rounded=0;" vertex="1" parent="1">
          <mxGeometry x="560" y="510" width="120" height="80" as="geometry" />
        </mxCell>
        <mxCell id="AHbj8GCZAYn0mLDnQvJX-4" value="&lt;font style=&quot;font-size: 36px;&quot;&gt;4 7 2 1 5 9&lt;/font&gt;" style="rounded=0;whiteSpace=wrap;html=1;" vertex="1" parent="1">
          <mxGeometry x="670" y="525" width="197" height="50" as="geometry" />
        </mxCell>
        <mxCell id="AHbj8GCZAYn0mLDnQvJX-5" value="&lt;font style=&quot;font-size: 24px;&quot;&gt;i == 0&lt;br&gt;j == 2&lt;/font&gt;" style="text;html=1;align=center;verticalAlign=middle;whiteSpace=wrap;rounded=0;" vertex="1" parent="1">
          <mxGeometry x="560" y="600" width="120" height="80" as="geometry" />
        </mxCell>
        <mxCell id="AHbj8GCZAYn0mLDnQvJX-6" value="&lt;font style=&quot;font-size: 36px;&quot;&gt;4 2 7 1 5 9&lt;/font&gt;" style="rounded=0;whiteSpace=wrap;html=1;" vertex="1" parent="1">
          <mxGeometry x="670" y="615" width="197" height="50" as="geometry" />
        </mxCell>
        <mxCell id="AHbj8GCZAYn0mLDnQvJX-7" value="&lt;font style=&quot;font-size: 24px;&quot;&gt;i == 0&lt;br&gt;j == 3&lt;/font&gt;" style="text;html=1;align=center;verticalAlign=middle;whiteSpace=wrap;rounded=0;" vertex="1" parent="1">
          <mxGeometry x="560" y="690" width="120" height="80" as="geometry" />
        </mxCell>
        <mxCell id="AHbj8GCZAYn0mLDnQvJX-8" value="&lt;font style=&quot;font-size: 36px;&quot;&gt;4 2 1 7 5 9&lt;/font&gt;" style="rounded=0;whiteSpace=wrap;html=1;" vertex="1" parent="1">
          <mxGeometry x="670" y="705" width="197" height="50" as="geometry" />
        </mxCell>
        <mxCell id="AHbj8GCZAYn0mLDnQvJX-9" value="&lt;font style=&quot;font-size: 24px;&quot;&gt;i == 0&lt;br&gt;j == 4&lt;/font&gt;" style="text;html=1;align=center;verticalAlign=middle;whiteSpace=wrap;rounded=0;" vertex="1" parent="1">
          <mxGeometry x="560" y="777" width="120" height="80" as="geometry" />
        </mxCell>
        <mxCell id="AHbj8GCZAYn0mLDnQvJX-10" value="&lt;font style=&quot;font-size: 36px;&quot;&gt;4 2 1 5 7 9&lt;/font&gt;" style="rounded=0;whiteSpace=wrap;html=1;" vertex="1" parent="1">
          <mxGeometry x="670" y="792" width="197" height="50" as="geometry" />
        </mxCell>
        <mxCell id="AHbj8GCZAYn0mLDnQvJX-11" value="&lt;font style=&quot;font-size: 24px;&quot;&gt;i == 1&lt;br&gt;j == 0&lt;/font&gt;" style="text;html=1;align=center;verticalAlign=middle;whiteSpace=wrap;rounded=0;" vertex="1" parent="1">
          <mxGeometry x="560" y="870" width="120" height="80" as="geometry" />
        </mxCell>
        <mxCell id="AHbj8GCZAYn0mLDnQvJX-12" value="&lt;font style=&quot;font-size: 36px;&quot;&gt;2 1 4 5 7 9&lt;/font&gt;" style="rounded=0;whiteSpace=wrap;html=1;" vertex="1" parent="1">
          <mxGeometry x="670" y="885" width="197" height="50" as="geometry" />
        </mxCell>
        <mxCell id="AHbj8GCZAYn0mLDnQvJX-13" value="&lt;font style=&quot;font-size: 24px;&quot;&gt;i == 2&lt;br&gt;j == 0&lt;/font&gt;" style="text;html=1;align=center;verticalAlign=middle;whiteSpace=wrap;rounded=0;" vertex="1" parent="1">
          <mxGeometry x="560" y="960" width="120" height="80" as="geometry" />
        </mxCell>
        <mxCell id="AHbj8GCZAYn0mLDnQvJX-14" value="&lt;font style=&quot;font-size: 36px;&quot;&gt;2 1 4 5 7 9&lt;/font&gt;" style="rounded=0;whiteSpace=wrap;html=1;" vertex="1" parent="1">
          <mxGeometry x="670" y="975" width="197" height="50" as="geometry" />
        </mxCell>
      </root>
    </mxGraphModel>
  </diagram>
</mxfile>
